<svg xmlns="http://www.w3.org/2000/svg" version="1.1" xmlns:xlink="http://www.w3.org/1999/xlink" xmlns:svgjs="http://svgjs.dev/svgjs" width="2000" height="2433" viewBox="0 0 2000 2433"><g transform="matrix(1,0,0,1,0.06896551724139499,0.9850202429149704)"><svg viewBox="0 0 203 247" data-background-color="#ffffff" preserveAspectRatio="xMidYMid meet" height="2433" width="2000" xmlns="http://www.w3.org/2000/svg" xmlns:xlink="http://www.w3.org/1999/xlink"><g id="tight-bounds" transform="matrix(1,0,0,1,-0.007000000000005002,-0.09999999999999432)"><svg viewBox="0 0 203.013824 247.2" height="247.2" width="203.013824"><g><svg></svg></g><g><svg viewBox="0 0 203.013824 247.2" height="247.2" width="203.013824"><g transform="matrix(1,0,0,1,0,47.215199999999996)"><svg viewBox="0 0 203.013824 152.7696" height="152.7696" width="203.013824"><g><svg viewBox="0 0 203.013824 152.7696" height="152.7696" width="203.013824"><g><svg viewBox="0 0 203.013824 152.7696" height="152.7696" width="203.013824"><g><svg viewBox="0 0 203.013824 152.7696" height="152.7696" width="203.013824"><g id="textblocktransform"><svg viewBox="0 0 203.013824 152.7696" height="152.7696" width="203.013824" id="textblock"><g><svg viewBox="0 0 203.013824 152.7696" height="152.7696" width="203.013824"><g transform="matrix(1,0,0,1,0,0)"><svg width="203.013824" viewBox="2.7 -33.25 44.849999999999994 33.75" height="152.7696" data-palette-color="#0074d9"><path d="M11.33-15.73Q6.85-16.8 4.78-18.88 2.7-20.95 2.7-24.9 2.7-28.85 5.43-31.05 8.15-33.25 12.45-33.25 16.75-33.25 21.2-31.7L21.2-31.7 20.5-29.15Q16.35-30.65 12.88-30.65 9.4-30.65 7.55-29.18 5.7-27.7 5.7-24.9 5.7-22.1 7.2-20.65 8.7-19.2 13.18-18.03 17.65-16.85 19.65-14.93 21.65-13 21.65-8.72 21.65-4.45 18.78-1.98 15.9 0.5 11.35 0.5L11.35 0.5Q7.95 0.5 2.75-0.95L2.75-0.95 3.4-3.5Q8.5-2.1 11.6-2.1 14.7-2.1 16.7-3.83 18.7-5.55 18.7-8.65 18.7-11.75 17.25-13.2 15.8-14.65 11.33-15.73ZM30.1 0L27.4 0 27.4-32.75 30.05-32.75 37.1-14.4 37.85-14.4 44.9-32.75 47.55-32.75 47.55 0 44.85 0 44.85-25.4 44.65-25.4 39.4-11.85 35.55-11.85 30.3-25.45 30.1-25.45 30.1 0Z" opacity="1" transform="matrix(1,0,0,1,0,0)" fill="#0074d9" class="wordmark-text-0" data-fill-palette-color="primary" id="text-0"></path></svg></g></svg></g></svg></g></svg></g><g></g></svg></g></svg></g></svg></g><path d="M0 41.215L0 1 203.014 1 203.014 41.215 189.237 41.215 189.237 14.777 13.777 14.777 13.777 41.215 0 41.215M0 205.985L0 246.2 203.014 246.2 203.014 205.985 189.237 205.985 189.237 232.423 13.777 232.423 13.777 205.985 0 205.985" fill="#0074d9" stroke="transparent" data-fill-palette-color="primary"></path></svg></g><defs></defs></svg><rect width="203.013824" height="247.2" fill="none" stroke="none" visibility="hidden"></rect></g></svg></g></svg>