<svg xmlns="http://www.w3.org/2000/svg" version="1.1" xmlns:xlink="http://www.w3.org/1999/xlink" xmlns:svgjs="http://svgjs.dev/svgjs" width="2000" height="707" viewBox="0 0 2000 707"><g transform="matrix(1,0,0,1,-1.2121209994708124,-1.038217985623703)"><svg viewBox="0 0 396 140" data-background-color="#ffffff" preserveAspectRatio="xMidYMid meet" height="707" width="2000" xmlns="http://www.w3.org/2000/svg" xmlns:xlink="http://www.w3.org/1999/xlink"><g id="tight-bounds" transform="matrix(1,0,0,1,0.24000004210483894,0.2055877199254894)"><svg viewBox="0 0 395.52 139.58882456014902" height="139.58882456014902" width="395.52"><g><svg viewBox="0 0 692.5876180405942 244.43135999999998" height="139.58882456014902" width="395.52"><g transform="matrix(1,0,0,1,0,10.7340850039093)"><svg viewBox="0 0 395.52 222.96318999218138" height="222.96318999218138" width="395.52"><g id="textblocktransform"><svg viewBox="0 0 395.52 222.96318999218138" height="222.96318999218138" width="395.52" id="textblock"><g><svg viewBox="0 0 395.52 222.96318999218138" height="222.96318999218138" width="395.52"><g transform="matrix(1,0,0,1,0,0)"><svg width="395.52" viewBox="0.8500000238418579 -35.29999923706055 63.95000457763672 36.04999923706055" height="222.96318999218138" data-palette-color="#0080ff"><path d="M14-35.3Q17.65-35.3 20.35-34.25 23.05-33.2 25.4-31.05L25.4-31.05 22.15-27.3Q20.3-28.85 18.43-29.55 16.55-30.25 14.4-30.25L14.4-30.25Q12-30.25 10.53-29.18 9.05-28.1 9.05-26.15L9.05-26.15Q9.05-24.85 9.63-24 10.2-23.15 11.7-22.4 13.2-21.65 16.15-20.75L16.15-20.75Q21.25-19.15 23.83-16.78 26.4-14.4 26.4-9.85L26.4-9.85Q26.4-6.75 24.83-4.35 23.25-1.95 20.3-0.6 17.35 0.75 13.3 0.75L13.3 0.75Q9.35 0.75 6.23-0.53 3.1-1.8 0.85-4L0.85-4 4.25-7.8Q6.25-6.1 8.4-5.23 10.55-4.35 13.15-4.35L13.15-4.35Q16-4.35 17.75-5.7 19.5-7.05 19.5-9.5L19.5-9.5Q19.5-11 18.9-11.98 18.3-12.95 16.85-13.73 15.4-14.5 12.65-15.35L12.65-15.35Q7.15-17.05 4.7-19.45 2.25-21.85 2.25-25.75L2.25-25.75Q2.25-28.6 3.75-30.75 5.25-32.9 7.93-34.1 10.6-35.3 14-35.3L14-35.3ZM62.1-34.55L64.8 0 58.35 0 57.45-14.45Q57-22.2 57-26.75L57-26.75 57-28.55 50.7-3.75 44.45-3.75 37.75-28.6Q37.85-25.3 37.85-23.6L37.85-23.6Q37.85-19.05 37.55-14.25L37.55-14.25 36.7 0 30.3 0 33.05-34.55 41.55-34.55 47.7-10.35 53.5-34.55 62.1-34.55Z" opacity="1" transform="matrix(1,0,0,1,0,0)" fill="#0080ff" class="wordmark-text-0" data-fill-palette-color="primary" id="text-0"></path></svg></g></svg></g></svg></g></svg></g><g transform="matrix(1,0,0,1,448.1562580405942,0)"><svg viewBox="0 0 244.43135999999998 244.43135999999998" height="244.43135999999998" width="244.43135999999998"><g data-palette-color="#010c80"><rect width="66.8112384" height="244.43135999999998" fill="#010c80" stroke="transparent" data-fill-palette-color="accent" x="0" fill-opacity="1"></rect><rect width="66.8112384" height="244.43135999999998" fill="#010c80" stroke="transparent" data-fill-palette-color="accent" x="81.47711999999999" fill-opacity="0.75"></rect><rect width="66.8112384" height="244.43135999999998" fill="#010c80" stroke="transparent" data-fill-palette-color="accent" x="162.95423999999997" fill-opacity="0.5"></rect></g></svg></g></svg></g><defs></defs></svg><rect width="395.52" height="139.58882456014902" fill="none" stroke="none" visibility="hidden"></rect></g></svg></g></svg>